<?xml version="1.0" ?><svg enable-background="new 0 0 52 52" id="Layer_1" version="1.1" viewBox="0 0 52 52" xml:space="preserve" xmlns="http://www.w3.org/2000/svg" xmlns:xlink="http://www.w3.org/1999/xlink"><g><g><g><path d="M14.5231934,9.4981689c-4.3800049,0-8.0200195,3.0599976-8.5500488,7     c-0.0499878,0.3300171-0.0700073,0.6600342-0.0700073,1c0,0.3400269,0.0200195,0.6699829,0.0700073,1     c0.5300293,3.9400024,4.1700439,7,8.5500488,7h9.3799438v-16H14.5231934z M21.9031372,23.4981689h-7.3799438     c-3.6500244,0-6.6200562-2.6900024-6.6200562-6c0-3.2999878,2.9700317-6,6.6200562-6h7.3799438V23.4981689z" fill="#0096E6"/></g></g><g><g><polygon fill="#0096E6" points="50,42.5018311 48,42.5018311 48,18.5018311 45,18.5018311 45,16.5018311 50,16.5018311    "/></g></g><g><g><polygon fill="#0096E6" points="4,42.5018311 2,42.5018311 2,16.5018311 7,16.5018311 7,18.5018311 4,18.5018311    "/></g></g><g><g><g><path d="M45.8331909,16.4981689c-0.4400024-3.9400024-3.5100098-7-7.2300415-7H21.9031372v16h16.7000122      c3.7200317,0,6.7900391-3.0599976,7.2300415-7c0.0499878-0.3300171,0.0699463-0.6599731,0.0699463-1      C45.9031372,17.1582031,45.8831787,16.828186,45.8331909,16.4981689z M38.6031494,23.4981689H23.9031372v-12h14.7000122      c2.9200439,0,5.2999878,2.7000122,5.2999878,6C43.9031372,20.8081665,41.5231934,23.4981689,38.6031494,23.4981689z" fill="#0096E6"/></g><g><rect fill="#D0E8F9" height="12" width="11.1000366" x="23.9031372" y="11.4981689"/></g></g><g><g><rect fill="#0096E6" height="14" width="2" x="35.0031738" y="10.4981689"/></g></g></g></g></svg>