<?xml version="1.0" ?><!DOCTYPE svg  PUBLIC '-//W3C//DTD SVG 1.1//EN'  'http://www.w3.org/Graphics/SVG/1.1/DTD/svg11.dtd'><svg enable-background="new 0 0 91 91" height="91px" id="Layer_1" version="1.1" viewBox="0 0 91 91" width="91px" xml:space="preserve" xmlns="http://www.w3.org/2000/svg" xmlns:xlink="http://www.w3.org/1999/xlink"><g><g><g><g><path d="M75.723,25.246c0-3.563-3.281-6.463-7.314-6.463c-0.801,0-1.57,0.119-2.293,0.33v-4.658      c0-4.447-3.619-8.066-8.068-8.066c-1.125,0-2.197,0.232-3.17,0.65c-0.666-3.781-3.969-6.666-7.939-6.666      c-4.449,0-8.068,3.619-8.068,8.064v4.564c-0.939-0.383-1.965-0.6-3.039-0.6c-4.449,0-8.068,3.619-8.068,8.068v21.424      l-1.98-2.752c-0.164-0.215-1.674-2.1-4.285-2.42c-1.283-0.156-3.277,0.027-5.486,1.795c-3.041,2.432-2.902,6.232-2.342,8.098      c0.057,0.184,0.133,0.363,0.229,0.531L24.332,65.23c0.35,2.521,2.26,12.115,11.418,16.779v6.287      c0,1.387,1.125,2.512,2.512,2.512c1.389,0,2.514-1.125,2.514-2.512V80.4c0-1.018-0.615-1.936-1.559-2.324      c-8.928-3.668-9.91-13.457-9.947-13.863c-0.031-0.369-0.143-0.727-0.328-1.047L18.438,44.959      c-0.092-0.523-0.201-1.787,0.711-2.516c0.416-0.332,1.67-1.342,2.65-0.234l6.438,8.943c0.637,0.887,1.771,1.256,2.811,0.924      c1.037-0.334,1.74-1.301,1.74-2.391V20.471c0-1.678,1.365-3.043,3.043-3.043c1.676,0,3.039,1.365,3.039,3.043v18.719v5.102      c0,1.389,1.125,2.514,2.512,2.514c1.389,0,2.514-1.125,2.514-2.514v-5.102V20.471V8.438c0-1.676,1.365-3.039,3.043-3.039      s3.043,1.363,3.043,3.039v6.018v23.82v5.428c0,1.387,1.125,2.512,2.514,2.512c1.387,0,2.512-1.125,2.512-2.512v-5.428v-23.82      c0-1.678,1.363-3.041,3.041-3.041s3.043,1.363,3.043,3.041v10.791v17.541v2.826c0,1.389,1.125,2.514,2.514,2.514      c1.387,0,2.512-1.125,2.512-2.514v-2.826V25.246c0-0.664,1.002-1.438,2.293-1.438c1.311,0,2.289,0.76,2.289,1.438v21.221      c0,0.176,0.018,0.352,0.055,0.523c0.045,0.207,4.273,20.762-6.25,32.244c-0.424,0.463-0.66,1.068-0.66,1.697v7.365      c0,1.387,1.125,2.512,2.514,2.512c1.387,0,2.512-1.125,2.512-2.512v-6.416c10.879-12.797,7.385-32.967,6.855-35.666V25.246z"/><path d="M46.617,90.785c1.389,0,2.514-1.125,2.514-2.514V71.195h6.082v17.076c0,1.389,1.125,2.514,2.514,2.514      c1.387,0,2.512-1.125,2.512-2.514V71.195h3.818c1.387,0,2.512-1.125,2.512-2.514v-6.986c2.148-0.963,3.652-3.117,3.652-5.619      c0-3.398-2.766-6.162-6.164-6.162c-3.396,0-6.16,2.764-6.16,6.162c0,2.5,1.5,4.654,3.646,5.619v4.475H54.15v-4.475      c2.146-0.965,3.648-3.119,3.648-5.619c0-3.398-2.764-6.162-6.16-6.162c-3.4,0-6.168,2.764-6.168,6.162      c0,2.502,1.504,4.656,3.654,5.619v4.475h-7.402v-4.475c2.148-0.963,3.652-3.117,3.652-5.619c0-3.398-2.766-6.162-6.166-6.162      c-3.396,0-6.162,2.764-6.162,6.162c0,2.5,1.502,4.654,3.65,5.619v6.986c0,1.389,1.125,2.514,2.512,2.514h4.896v17.076      C44.105,89.66,45.23,90.785,46.617,90.785z M64.057,54.939c0.627,0,1.139,0.51,1.139,1.137c0,0.625-0.512,1.135-1.139,1.135      s-1.135-0.51-1.135-1.135C62.922,55.449,63.43,54.939,64.057,54.939z M51.639,54.939c0.625,0,1.135,0.51,1.135,1.137      c0,0.625-0.51,1.135-1.135,1.135c-0.631,0-1.143-0.51-1.143-1.135C50.496,55.449,51.008,54.939,51.639,54.939z M39.209,54.939      c0.629,0,1.141,0.51,1.141,1.137c0,0.625-0.512,1.135-1.141,1.135c-0.627,0-1.137-0.51-1.137-1.135      C38.072,55.449,38.582,54.939,39.209,54.939z"/></g></g></g></g></svg>